<svg id="Layer_1" data-name="Layer 1" xmlns="http://www.w3.org/2000/svg" viewBox="0 0 1084.58 107.31"><defs><style>.cls-1{fill:#3e3a39;}.cls-2{fill:#d93915;}.cls-3{fill:#dba734;}</style></defs><title>Bitcoin Value LOGO</title><path class="cls-1" d="M68.61,348.84q-6.26,0-12.45-.38a88.67,88.67,0,0,1-12.89-1.81V273a111.9,111.9,0,0,1,11.52-1.48Q61,271,66.41,271a79.7,79.7,0,0,1,13.33,1,31.5,31.5,0,0,1,10.47,3.57,18.64,18.64,0,0,1,6.85,6.63,19.37,19.37,0,0,1,2.47,10.15q0,9.09-8.77,14.36,7.23,2.75,9.87,7.46a21.49,21.49,0,0,1,2.63,10.64q0,12-8.72,18t-25.93,6m-8.67-47.15h8.34q7.89,0,11.29-2t3.4-6.53c0-3.07-1.17-5.22-3.51-6.47s-5.77-1.86-10.31-1.86c-1.46,0-3,0-4.71.05s-3.18.13-4.5.28Zm0,13.05v19.63c1.25.14,2.6.25,4.06.33s3.07.11,4.82.11q7.68,0,12.4-2.2t4.71-8.11c0-3.51-1.31-6-3.94-7.51s-6.4-2.25-11.3-2.25Z" transform="translate(-43.27 -263.85)"/><path class="cls-1" d="M128.27,273.5a9,9,0,0,1-2.91,7.08,10.43,10.43,0,0,1-13.71,0,10.06,10.06,0,0,1,0-14.15,10.4,10.4,0,0,1,13.71,0,9,9,0,0,1,2.91,7.07m-1.54,74.36H110.39V290.17h16.34Z" transform="translate(-43.27 -263.85)"/><path class="cls-1" d="M136.05,275.8l16.34-2.63v17H172v13.6H152.39v20.29a16.05,16.05,0,0,0,1.81,8.22q1.8,3.08,7.29,3.07a31.13,31.13,0,0,0,5.43-.49,27.85,27.85,0,0,0,5.1-1.37l2.3,12.72a46.33,46.33,0,0,1-6.58,2.09,38.6,38.6,0,0,1-8.88.87,29.21,29.21,0,0,1-11.08-1.81,17.35,17.35,0,0,1-7-5,18.79,18.79,0,0,1-3.67-7.84,46,46,0,0,1-1-10.2Z" transform="translate(-43.27 -263.85)"/><path class="cls-1" d="M177.06,319a34.13,34.13,0,0,1,2-11.79,27.58,27.58,0,0,1,15.19-16.17,30.73,30.73,0,0,1,12.5-2.41,40.31,40.31,0,0,1,8.45.82,40.92,40.92,0,0,1,7.46,2.36l-3.4,13.05a40.74,40.74,0,0,0-5-1.54,26.27,26.27,0,0,0-6.14-.66c-4.82,0-8.43,1.5-10.8,4.5s-3.57,6.95-3.57,11.84q0,7.8,3.35,12.07t11.68,4.27a40.74,40.74,0,0,0,6.36-.54,27,27,0,0,0,6.25-1.76l2.3,13.38a37.37,37.37,0,0,1-7.13,2.08,46.59,46.59,0,0,1-9.43.88,35.55,35.55,0,0,1-13.6-2.36,25.64,25.64,0,0,1-9.37-6.41,25.19,25.19,0,0,1-5.38-9.6,40.82,40.82,0,0,1-1.7-12" transform="translate(-43.27 -263.85)"/><path class="cls-1" d="M283.11,318.9a37.63,37.63,0,0,1-2,12.45,26.94,26.94,0,0,1-5.71,9.65,25.57,25.57,0,0,1-8.93,6.2,29.92,29.92,0,0,1-11.69,2.19,29.6,29.6,0,0,1-11.57-2.19,25.57,25.57,0,0,1-8.93-6.2,28,28,0,0,1-5.81-9.65,35.43,35.43,0,0,1-2.09-12.45,34.36,34.36,0,0,1,2.14-12.39,28.16,28.16,0,0,1,5.92-9.54,26.53,26.53,0,0,1,9-6.14,28.94,28.94,0,0,1,11.34-2.19,29.26,29.26,0,0,1,11.46,2.19,25.9,25.9,0,0,1,8.94,6.14,27.8,27.8,0,0,1,5.82,9.54,35.47,35.47,0,0,1,2.08,12.39m-16.67,0q0-7.56-3-11.89a9.86,9.86,0,0,0-8.61-4.34,10,10,0,0,0-8.66,4.34q-3.06,4.32-3.07,11.89t3.07,12a9.93,9.93,0,0,0,8.66,4.44,9.79,9.79,0,0,0,8.61-4.44q3-4.44,3-12" transform="translate(-43.27 -263.85)"/><path class="cls-1" d="M308.11,273.5a9,9,0,0,1-2.91,7.08,10.41,10.41,0,0,1-13.7,0,10.06,10.06,0,0,1,0-14.15,10.38,10.38,0,0,1,13.7,0,9,9,0,0,1,2.91,7.07m-1.53,74.36H290.24V290.17h16.34Z" transform="translate(-43.27 -263.85)"/><path class="cls-1" d="M316.45,292.15a88.75,88.75,0,0,1,10.74-2.25,87.75,87.75,0,0,1,13.82-1,33.85,33.85,0,0,1,12.23,1.92A18.47,18.47,0,0,1,361,296.2a21.25,21.25,0,0,1,4.06,8.34,44.6,44.6,0,0,1,1.2,10.75v32.57H349.89v-30.6q0-7.89-2.08-11.19c-1.39-2.19-4-3.29-7.79-3.29-1.17,0-2.41.06-3.72.17s-2.49.24-3.51.38v44.53H316.45Z" transform="translate(-43.27 -263.85)"/><path class="cls-2" d="M399.37,347.86q-4.55-9.58-8.95-19.88T382,307.61q-4-10.08-7.3-19.3T369,271.86h18.87q2.13,6.6,4.74,14.21t5.33,15.17q2.7,7.56,5.19,14.48t4.75,12q2.14-5,4.68-11.93t5.25-14.48q2.72-7.56,5.32-15.17t4.76-14.24h18.21q-2.55,7.27-5.88,16.47t-7.27,19.28Q429,317.7,424.59,328t-8.9,19.85Z" transform="translate(-43.27 -263.85)"/><path class="cls-2" d="M492.56,347.86c-.85-2.64-1.76-5.36-2.73-8.14s-1.94-5.55-2.91-8.31H457.24q-1.44,4.15-2.89,8.33c-1,2.79-1.86,5.49-2.69,8.12H433.89q4.29-12.28,8.14-22.7t7.54-19.63q3.69-9.22,7.26-17.5t7.43-16.17h16.21q3.75,7.89,7.38,16.17t7.33,17.5q3.69,9.21,7.55,19.63t8.15,22.7ZM472,289.08q-.57,1.65-1.67,4.5c-.74,1.9-1.57,4.1-2.51,6.59s-2,5.23-3.15,8.22-2.34,6.13-3.54,9.42h21.73q-1.74-4.95-3.37-9.45t-3.11-8.24q-1.47-3.74-2.58-6.58c-.74-1.9-1.34-3.38-1.8-4.46" transform="translate(-43.27 -263.85)"/><polygon class="cls-2" points="522.66 69.31 522.66 84 471.88 84 471.88 8.01 488.99 8.01 488.99 69.31 522.66 69.31"/><path class="cls-2" d="M601.14,349.39a38.23,38.23,0,0,1-13.82-2.25,25.57,25.57,0,0,1-9.6-6.25,25.06,25.06,0,0,1-5.59-9.54,39.1,39.1,0,0,1-1.81-12.23V271.86h17.11V317.7a25.63,25.63,0,0,0,1,7.84,14.41,14.41,0,0,0,2.85,5.26,10.19,10.19,0,0,0,4.39,2.91,17.53,17.53,0,0,0,5.65.88,13.83,13.83,0,0,0,10.14-3.84q3.88-3.84,3.89-13.05V271.86H632.5v47.26a38.78,38.78,0,0,1-1.86,12.29,24.51,24.51,0,0,1-15.47,15.79,40.41,40.41,0,0,1-14,2.19" transform="translate(-43.27 -263.85)"/><polygon class="cls-2" points="600.19 84 600.19 8.01 651.51 8.01 651.51 22.37 617.3 22.37 617.3 37.29 647.68 37.29 647.68 51.32 617.3 51.32 617.3 69.64 654.04 69.64 654.04 84 600.19 84"/><path class="cls-3" d="M759.15,315.58H731.59L728,334.3h30.89l-2.64,14.12H708.85L723.55,271h45.83l-2.76,14.13H737.45l-3.22,16.54H761.8Z" transform="translate(-43.27 -263.85)"/><path class="cls-3" d="M789.82,292.26l3.33,8.39c1.73,4.48,2.76,7.23,3.56,9.41h.35c2.07-3,3.56-5.51,6-8.95l6.2-8.85h18.95l-23.66,27.22,13.1,28.94H799.47l-3.56-8.95c-1.61-4.14-2.53-6.89-3.56-10.23H792c-1.61,2.65-3.22,5.52-5.75,9.42l-6.66,9.76H760.54l24.34-29.05-13.2-27.11Z" transform="translate(-43.27 -263.85)"/><path class="cls-3" d="M820.26,371.17l10.8-57.2c1.26-6.66,2.64-16,3.33-21.71h14.82l-1,8.16h.23a22.72,22.72,0,0,1,18-9.42c12.18,0,18,9.76,18,21.25,0,19.52-13,37.44-32.5,37.44a22.31,22.31,0,0,1-10.45-2.3h-.23l-4.59,23.78Zm23.55-36.76a10.68,10.68,0,0,0,7.58,2.76c8.84,0,15.73-12.64,15.73-23.66,0-4.48-1.84-9.19-7.23-9.19-6.21,0-11.95,7-14,18Z" transform="translate(-43.27 -263.85)"/><path class="cls-3" d="M889.29,348.42l15.62-81.54h16.54l-15.62,81.54Z" transform="translate(-43.27 -263.85)"/><path class="cls-3" d="M979,314.08c0,20.56-14,35.61-33.53,35.61-14.25,0-23.78-9.31-23.78-23.2,0-19.53,13.55-35.49,33.54-35.49C970.26,291,979,301.33,979,314.08Zm-40.2,12.06c0,6.55,3.22,10.91,9,10.91,9.08,0,14.13-13.2,14.13-22.85,0-5.17-2.18-10.68-8.84-10.68C943.5,303.52,938.68,317.41,938.79,326.14Z" transform="translate(-43.27 -263.85)"/><path class="cls-3" d="M983.93,348.42,990.25,315c1.61-8.5,2.3-17.91,2.87-22.74h14.36c-.35,3.79-.69,7.58-1,11.49h.34c3.91-7.47,10.22-12.75,17.92-12.75a29.29,29.29,0,0,1,3.1.11l-3.22,16.08a20.25,20.25,0,0,0-2.64-.11c-10.57,0-15.5,9.42-17.57,20.44l-3.91,20.9Z" transform="translate(-43.27 -263.85)"/><path class="cls-3" d="M1073.41,345.21c-6.55,3.33-14.7,4.36-20.91,4.36-16.08,0-24.35-9.07-24.35-23.66,0-17.11,12.41-34.91,32.74-34.91,11.37,0,19.52,6.32,19.52,16.77,0,14.35-13.89,19.52-36.41,19a11.07,11.07,0,0,0,1.73,5.74c2.18,2.87,6,4.36,10.79,4.36a35.23,35.23,0,0,0,15.74-3.56Zm-14.59-42.15c-7.69,0-12.06,6.31-13.21,11.6,12.87.11,19.3-1.72,19.3-6.78C1064.91,305,1062.61,303.06,1058.82,303.06Z" transform="translate(-43.27 -263.85)"/><path class="cls-3" d="M1084,348.42l6.31-33.42c1.61-8.5,2.3-17.91,2.87-22.74h14.36c-.34,3.79-.69,7.58-1,11.49h.34c3.91-7.47,10.22-12.75,17.92-12.75a29.2,29.2,0,0,1,3.1.11l-3.22,16.08a20.25,20.25,0,0,0-2.64-.11c-10.56,0-15.5,9.42-17.57,20.44l-3.91,20.9Z" transform="translate(-43.27 -263.85)"/></svg>